<?xml version="1.0" encoding="UTF-8" standalone="no"?>
<svg
   xmlns:dc="http://purl.org/dc/elements/1.1/"
   xmlns:cc="http://creativecommons.org/ns#"
   xmlns:rdf="http://www.w3.org/1999/02/22-rdf-syntax-ns#"
   xmlns:svg="http://www.w3.org/2000/svg"
   xmlns="http://www.w3.org/2000/svg"
   xmlns:sodipodi="http://sodipodi.sourceforge.net/DTD/sodipodi-0.dtd"
   xmlns:inkscape="http://www.inkscape.org/namespaces/inkscape"
   viewBox="0 0 359.72115 114.09431"
   id="svg3406"
   version="1.1"
   inkscape:version="0.91 r13725"
   sodipodi:docname="adopte-un-git-full.svg"
   width="359.72113"
   height="114.09431">
  <metadata
     id="metadata3420">
    <rdf:RDF>
      <cc:Work
         rdf:about="">
        <dc:format>image/svg+xml</dc:format>
        <dc:type
           rdf:resource="http://purl.org/dc/dcmitype/StillImage" />
        <dc:title />
      </cc:Work>
    </rdf:RDF>
  </metadata>
  <defs
     id="defs3418" />
  <sodipodi:namedview
     pagecolor="#ffffff"
     bordercolor="#666666"
     borderopacity="1"
     objecttolerance="10"
     gridtolerance="10"
     guidetolerance="10"
     inkscape:pageopacity="0"
     inkscape:pageshadow="2"
     inkscape:window-width="2020"
     inkscape:window-height="1185"
     id="namedview3416"
     showgrid="false"
     showguides="false"
     fit-margin-top="0"
     fit-margin-left="0"
     fit-margin-right="0"
     fit-margin-bottom="0"
     inkscape:zoom="3.4986812"
     inkscape:cx="153.83202"
     inkscape:cy="39.991697"
     inkscape:window-x="17"
     inkscape:window-y="46"
     inkscape:window-maximized="0"
     inkscape:current-layer="svg3406" />
  <g
     id="g4482"
     transform="translate(-114.02089,0.38506472)">
    <rect
       mask="none"
       clip-path="none"
       transform="matrix(0.70710678,-0.70710678,0.70710678,0.70710678,0,0)"
       y="126.02953"
       x="45.897232"
       height="70"
       width="70"
       id="rect3504"
       style="fill:#f03c2e;fill-opacity:1;fill-rule:evenodd;stroke:#f03c2e;stroke-width:15.10000038;stroke-linecap:butt;stroke-linejoin:round;stroke-miterlimit:4;stroke-dasharray:none;stroke-opacity:1" />
    <g
       style="fill:#ffffff"
       mask="none"
       clip-path="none"
       id="g4410">
      <rect
         style="fill:#ffffff;fill-opacity:1;stroke:none;stroke-width:15.10000038;stroke-linejoin:round;stroke-miterlimit:4;stroke-dasharray:none;stroke-opacity:1"
         id="rect4315"
         width="69.56498"
         height="7.1360002"
         x="-75.466309"
         y="184.45818"
         transform="matrix(0,-1,1,0,0,0)" />
      <rect
         style="fill:#ffffff;fill-opacity:1;stroke:none;stroke-width:15.10000038;stroke-linejoin:round;stroke-miterlimit:4;stroke-dasharray:none;stroke-opacity:1"
         id="rect4368"
         width="33.453999"
         height="7.1360002"
         x="60.238899"
         y="161.62816"
         transform="matrix(0.70710678,-0.70710678,0.70710678,0.70710678,0,0)" />
      <circle
         style="fill:#ffffff;fill-opacity:1;stroke:none;stroke-width:15.10000038;stroke-linejoin:round;stroke-miterlimit:4;stroke-dasharray:none;stroke-opacity:1"
         id="path4370"
         cx="164.91417"
         cy="-53.228897"
         r="8.6999998"
         transform="matrix(0.70710678,0.70710678,-0.70710678,0.70710678,0,0)" />
      <circle
         style="fill:#ffffff;fill-opacity:1;stroke:none;stroke-width:15.10000038;stroke-linejoin:round;stroke-miterlimit:4;stroke-dasharray:none;stroke-opacity:1"
         id="path4392"
         cx="164.92017"
         cy="-100.6329"
         r="8.6999998"
         transform="matrix(0.70710678,0.70710678,-0.70710678,0.70710678,0,0)" />
      <circle
         style="fill:#ffffff;fill-opacity:1;stroke:none;stroke-width:15.10000038;stroke-linejoin:round;stroke-miterlimit:4;stroke-dasharray:none;stroke-opacity:1"
         id="path4394"
         cx="188.64929"
         cy="-76.881897"
         r="8.6999998"
         transform="matrix(0.70710678,0.70710678,-0.70710678,0.70710678,0,0)" />
      <rect
         style="fill:#ffffff;fill-opacity:1;stroke:none;stroke-width:15.10000038;stroke-linejoin:round;stroke-miterlimit:4;stroke-dasharray:none;stroke-opacity:1"
         id="rect4408"
         width="21.221199"
         height="3.8400266"
         x="168.2538"
         y="63.180176" />
    </g>
  </g>
  <g
     id="g4626"
     transform="matrix(0.57027655,0,0,0.57027655,211.14594,-10.985938)"
     style="fill:#362701;fill-opacity:1">
    <path
       id="path4602"
       d="m 151.15148,125.61981 c -5.985,0 -10.442,2.9389 -10.442,10.012 0,5.3291 2.9375,9.0284 10.12,9.0284 6.0875,0 10.222,-3.5869 10.222,-9.2485 0,-6.416 -3.7,-9.7915 -9.9,-9.7915 z m -11.97,49.94 c -1.4162,1.7382 -2.8275,3.585 -2.8275,5.7646 0,4.3482 5.545,5.6568 13.162,5.6568 6.31,0 14.905,-0.44188 14.905,-6.3085 0,-3.4869 -4.135,-3.7028 -9.36,-4.0304 l -15.88,-1.0825 z m 32.201,-49.611 c 1.955,2.5029 4.025,5.9848 4.025,10.989 0,12.075 -9.465,19.146 -23.169,19.146 -3.485,0 -6.64,-0.43412 -8.5962,-0.97712 l -3.5912,5.7648 10.66,0.65125 c 18.822,1.1992 29.915,1.7442 29.915,16.208 0,12.514 -10.985,19.581 -29.915,19.581 -19.69,0 -27.196,-5.0049 -27.196,-13.598 0,-4.8975 2.1762,-7.5025 5.9838,-11.098 -3.5912,-1.518 -4.7862,-4.2362 -4.7862,-7.1748 0,-2.395 1.195,-4.5702 3.1562,-6.6386 1.9575,-2.065 4.1325,-4.1348 6.7438,-6.5274 -5.33,-2.6104 -9.3562,-8.2676 -9.3562,-16.319 0,-12.509 8.2688,-21.1 24.91,-21.1 4.6788,0 7.5088,0.43062 10.011,1.0874 l 21.215,0 0,9.2446 -10.01,0.76175"
       inkscape:connector-curvature="0"
       style="fill:#362701;fill-opacity:1" />
    <path
       id="path4604"
       d="m 200.54148,106.17981 c -6.2025,0 -9.7912,-3.5932 -9.7912,-9.796397 0,-6.1954 3.5888,-9.5704 9.7912,-9.5704 6.31,0 9.9,3.375 9.9,9.5704 0,6.203097 -3.59,9.796397 -9.9,9.796397 z m -14.036,65.376 0,-8.5899 5.55,-0.75925 c 1.5238,-0.22075 1.74,-0.5445 1.74,-2.1802 l 0,-31.983 c 0,-1.1942 -0.325,-1.959 -1.4162,-2.2828 l -5.8738,-2.0688 1.1962,-8.8086 22.521,0 0,45.144 c 0,1.7438 0.105,1.9595 1.7412,2.1802 l 5.5488,0.75925 0,8.5899 -31.008,0"
       inkscape:connector-curvature="0"
       style="fill:#362701;fill-opacity:1" />
    <path
       id="path4606"
       d="m 260.53148,167.33981 c -4.68,2.2818 -11.532,4.3491 -17.736,4.3491 -12.945,0 -17.839,-5.2168 -17.839,-17.515 l 0,-28.5 c 0,-0.65138 0,-1.0884 -0.87375,-1.0884 l -7.6138,0 0,-9.6816 c 9.5762,-1.0908 13.381,-5.8784 14.578,-17.735997 l 10.336,0 0,15.452997 c 0,0.75875 0,1.0874 0.87125,1.0874 l 15.338,0 0,10.877 -16.209,0 0,25.999 c 0,6.4194 1.525,8.9194 7.3962,8.9194 3.05,0 6.2012,-0.75925 8.8125,-1.7392 l 2.94,9.5761"
       inkscape:connector-curvature="0"
       style="fill:#362701;fill-opacity:1" />
  </g>
  <g
     style="font-style:normal;font-variant:normal;font-weight:200;font-stretch:normal;font-size:40.00000381px;line-height:139.99999762%;font-family:'.HeitiUI GB18030PUA';-inkscape-font-specification:'.HeitiUI GB18030PUA, Ultra-Light';text-align:start;letter-spacing:0px;word-spacing:0px;writing-mode:lr-tb;text-anchor:start;fill:#362701;fill-opacity:1;stroke:none;stroke-width:1px;stroke-linecap:butt;stroke-linejoin:miter;stroke-opacity:1"
     id="text4631">
    <path
       d="m 113.57645,55.638695 0,29.680003 -1.72,0 0,-4.8 q -4.56,5.52 -9.24,5.52 -2.28,0 -4.240004,-0.8 -1.92,-0.8 -3.48,-2.48 -3.240001,-3.28 -3.240001,-7.960001 0,-4.68 3.280001,-7.920001 3.24,-3.28 7.600004,-3.28 5.2,0 9.32,5.720001 l 0,-13.680002 1.72,0 z m -1.56,19.240002 q 0,-3.88 -2.6,-6.68 -2.64,-2.760001 -6.64,-2.760001 -4.000004,0 -6.720004,2.840001 -1.28,1.4 -1.960001,3.04 -0.64,1.64 -0.64,3.56 0,3.720001 2.680001,6.600001 2.72,2.84 6.480004,2.84 1.92,0 3.52,-0.6 1.64,-0.64 3.04,-2.04 l -0.04,0 q 2.88,-2.68 2.88,-6.800001 z"
       style=""
       id="path4186" />
    <path
       d="m 118.99832,74.878697 q 0,-4.72 3.24,-8.040001 3.24,-3.24 7.68,-3.24 4.56,0 7.72,3.28 3.24,3.240001 3.24,7.960001 0,4.640001 -3.2,7.960001 -1.6,1.68 -3.52,2.48 -1.88,0.76 -4.2,0.76 -2.28,0 -4.24,-0.76 -1.92,-0.8 -3.48,-2.48 -3.24,-3.28 -3.24,-7.920001 z m 20.08,0.04 q 0,-3.8 -2.68,-6.6 -2.64,-2.840001 -6.48,-2.840001 -3.72,0 -6.44,2.840001 -2.64,2.84 -2.64,6.64 0,3.880001 2.56,6.560001 2.6,2.72 6.48,2.72 3.96,0 6.56,-2.72 1.4,-1.4 2,-3.04 0.64,-1.640001 0.64,-3.560001 z"
       style=""
       id="path4188" />
    <path
       d="m 146.28832,64.158696 1.76,0 0,5.160001 q 4.12,-5.720001 9.32001,-5.720001 4.28,0 7.6,3.28 3.24,3.240001 3.24,7.920001 0,4.640001 -3.2,7.960001 -3.12,3.28 -7.56,3.28 -4.76001,0 -9.40001,-5.52 l 0,12.840001 -1.76,0 0,-29.200003 z m 20.16001,10.680001 q 0,-1.92 -0.72,-3.56 -0.68,-1.64 -1.96,-3.04 -2.68,-2.800001 -6.64,-2.800001 -4.04001,0 -6.68001,2.760001 -2.6,2.72 -2.6,6.68 0,2.04 0.68,3.720001 0.72,1.68 2,3.04 2.68,2.68 6.60001,2.68 3.88,0 6.6,-2.76 2.72,-2.84 2.72,-6.720001 z"
       style=""
       id="path4190" />
    <path
       d="m 178.03208,82.278698 q 0,0.72 0.04,1.12 0.08,0.4 0.32,0.6 0.24,0.16 0.68,0.2 0.48,0.04 1.28,0.04 l 1.16,0 0,1.6 q -0.68,0.08 -1.28,0.16 -0.56,0.04 -0.92,0.04 -1.6,0 -2.36,-0.76 -0.72,-0.76 -0.72,-2.56 l 0,-17.040002 -3.92,0 0,-1.52 3.92,0 0,-8.520001 1.8,0 0,8.520001 4.48,0 0,1.52 -4.48,0 0,16.600002 z"
       style=""
       id="path4192" />
    <path
       d="m 206.98583,80.038698 q -1.72,2.96 -4.2,4.48 -2.44,1.52 -5.68,1.52 -2.4,0 -4.32,-0.76 -1.92,-0.8 -3.52,-2.48 -3.08,-3.32 -3.08,-7.960001 0,-4.68 3.08,-8.000001 3.2,-3.24 7.68,-3.24 4.6,0 7.64,3.04 1.48,1.440001 2.28,3.480001 0.84,2.04 1,4.48 l -19.84,0 q 0.12,4.680001 2.6,7.200001 2.52,2.52 6.24,2.52 2.84,0 5,-1.2 2.16,-1.24 3.64,-3.88 l 1.48,0.8 z m -1.12,-6.960001 q -0.32,-2 -1.12,-3.4 -0.8,-1.44 -2.08,-2.400001 -1.24,-0.96 -2.64,-1.4 -1.4,-0.44 -3.04,-0.44 -6.64,0 -8.84,7.640001 l 17.72,0 z"
       style=""
       id="path4194" />
    <path
       d="m 241.12146,85.318698 -1.8,0 0,-5.08 q -2.16,2.88 -4.36,4.28 -2.16,1.36 -4.44,1.36 -2.32,0 -4.16,-1.24 -1.84,-1.28 -2.64,-3.32 -0.36,-1.04 -0.56,-2.56 -0.2,-1.560001 -0.2,-3.680001 l 0,-10.920001 1.72,0 0,10.040001 q 0,3.960001 0.36,5.320001 0.36,1.4 1.16,2.52 1.68,2.12 5,2.12 1.72,0 3.36,-0.8 1.68,-0.84 2.84,-2.32 0.56,-0.8 0.96,-1.56 0.4,-0.76 0.6,-1.560001 0.2,-0.8 0.28,-2.28 0.08,-1.48 0.08,-3.84 l 0,-7.640001 1.8,0 0,21.160002 z"
       style=""
       id="path4196" />
    <path
       d="m 247.50021,64.158696 1.8,0 0,5.080001 q 2.04,-2.880001 4.24,-4.240001 2.24,-1.4 4.52,-1.4 2.36,0 4.2,1.28 1.84,1.24 2.6,3.320001 0.4,1.04 0.6,2.56 0.24,1.52 0.24,3.64 l 0,10.920001 -1.76,0 0,-10.040001 q 0,-1.96 -0.12,-3.32 -0.08,-1.36 -0.28,-2.04 l 0,0.04 q -0.16,-0.64 -0.52,-1.32 -0.36,-0.72 -0.68,-1.200001 -1.56,-2.12 -4.96,-2.12 -1.72,0 -3.36,0.84 -1.64,0.8 -2.76,2.280001 -0.6,0.8 -1,1.56 -0.4,0.76 -0.6,1.56 -0.2,0.8 -0.28,2.28 -0.08,1.48 -0.08,3.84 l 0,7.640001 -1.8,0 0,-21.160002 z"
       style=""
       id="path4198" />
  </g>
</svg>
