<?xml version="1.0" encoding="UTF-8" standalone="no"?>
<svg
   xmlns:dc="http://purl.org/dc/elements/1.1/"
   xmlns:cc="http://creativecommons.org/ns#"
   xmlns:rdf="http://www.w3.org/1999/02/22-rdf-syntax-ns#"
   xmlns:svg="http://www.w3.org/2000/svg"
   xmlns="http://www.w3.org/2000/svg"
   xmlns:sodipodi="http://sodipodi.sourceforge.net/DTD/sodipodi-0.dtd"
   xmlns:inkscape="http://www.inkscape.org/namespaces/inkscape"
   viewBox="0 0 114.09433 114.09432"
   id="svg3406"
   version="1.1"
   inkscape:version="0.91 r13725"
   sodipodi:docname="adopte-un-git.svg"
   width="114.09432"
   height="114.09432"
   inkscape:export-filename="/Users/loic/workspace/adopteungit/assets/images/adopte-un-git.png"
   inkscape:export-xdpi="90"
   inkscape:export-ydpi="90">
  <metadata
     id="metadata3420">
    <rdf:RDF>
      <cc:Work
         rdf:about="">
        <dc:format>image/svg+xml</dc:format>
        <dc:type
           rdf:resource="http://purl.org/dc/dcmitype/StillImage" />
        <dc:title />
      </cc:Work>
    </rdf:RDF>
  </metadata>
  <defs
     id="defs3418" />
  <sodipodi:namedview
     pagecolor="#ffffff"
     bordercolor="#666666"
     borderopacity="1"
     objecttolerance="10"
     gridtolerance="10"
     guidetolerance="10"
     inkscape:pageopacity="0"
     inkscape:pageshadow="2"
     inkscape:window-width="2020"
     inkscape:window-height="1185"
     id="namedview3416"
     showgrid="false"
     showguides="false"
     fit-margin-top="0"
     fit-margin-left="0"
     fit-margin-right="0"
     fit-margin-bottom="0"
     inkscape:zoom="9.8957649"
     inkscape:cx="34.06306"
     inkscape:cy="66.801864"
     inkscape:window-x="17"
     inkscape:window-y="46"
     inkscape:window-maximized="0"
     inkscape:current-layer="svg3406" />
  <path
     style="color:#000000;font-style:normal;font-variant:normal;font-weight:normal;font-stretch:normal;font-size:medium;line-height:normal;font-family:sans-serif;text-indent:0;text-align:start;text-decoration:none;text-decoration-line:none;text-decoration-style:solid;text-decoration-color:#000000;letter-spacing:normal;word-spacing:normal;text-transform:none;direction:ltr;block-progression:tb;writing-mode:lr-tb;baseline-shift:baseline;text-anchor:start;white-space:normal;clip-rule:nonzero;display:inline;overflow:visible;visibility:visible;opacity:1;isolation:auto;mix-blend-mode:normal;color-interpolation:sRGB;color-interpolation-filters:linearRGB;solid-color:#000000;solid-opacity:1;fill:#f03c2e;fill-opacity:1;fill-rule:evenodd;stroke:none;stroke-width:15.10000038;stroke-linecap:butt;stroke-linejoin:round;stroke-miterlimit:4;stroke-dasharray:none;stroke-dashoffset:0;stroke-opacity:1;color-rendering:auto;image-rendering:auto;shape-rendering:auto;text-rendering:auto;enable-background:accumulate"
     d="M 56.935547 0 A 7.5507542 7.5507542 0 0 0 51.708984 2.2109375 L 2.2109375 51.708984 A 7.5507542 7.5507542 0 0 0 2.2109375 62.386719 L 51.708984 111.88281 A 7.5507542 7.5507542 0 0 0 62.386719 111.88281 L 111.88281 62.386719 A 7.5507542 7.5507542 0 0 0 111.88281 51.708984 L 77.574219 17.398438 L 77.574219 38.039062 A 8.6999988 8.6999988 0 0 1 79.90625 39.691406 A 8.6999988 8.6999988 0 0 1 79.90625 51.994141 A 8.6999988 8.6999988 0 0 1 77.574219 53.648438 L 77.574219 71.619141 A 8.6999988 8.6999988 0 0 1 79.890625 73.265625 A 8.6999988 8.6999988 0 0 1 79.890625 85.568359 A 8.6999988 8.6999988 0 0 1 67.585938 85.568359 A 8.6999988 8.6999988 0 0 1 67.585938 73.265625 A 8.6999988 8.6999988 0 0 1 70.4375 71.369141 L 70.4375 67.404297 L 57.626953 67.404297 L 48.460938 76.570312 A 8.6999988 8.6999988 0 0 1 46.380859 85.509766 A 8.6999988 8.6999988 0 0 1 34.078125 85.509766 A 8.6999988 8.6999988 0 0 1 34.078125 73.207031 A 8.6999988 8.6999988 0 0 1 43.597656 71.34375 L 65.734375 49.205078 A 8.6999988 8.6999988 0 0 1 67.601562 39.691406 A 8.6999988 8.6999988 0 0 1 70.4375 37.802734 L 70.4375 10.261719 L 62.386719 2.2109375 A 7.5507542 7.5507542 0 0 0 56.935547 0 z M 70.4375 54.595703 L 61.46875 63.564453 L 70.4375 63.564453 L 70.4375 54.595703 z "
     transform="translate(0,-3.8146975e-6)"
     id="rect3504" />
</svg>
